<svg width="153" height="144" viewBox="0 0 153 144" fill="none" xmlns="http://www.w3.org/2000/svg">
<g clip-path="url(#clip0_60_101)">
<path d="M-6.67066 135.157C-6.66436 134.474 5.16719 135.238 5.91924 135.238C16.6597 135.234 27.4041 135.336 38.1393 135.308C67.4332 135.233 96.6589 133.797 125.943 133.726C134.879 133.705 168.643 133.39 168.36 133.28" stroke="black" stroke-width="6.59904" stroke-linecap="square" stroke-linejoin="bevel"/>
<path d="M71.3635 130.248C70.6563 130.242 72.1762 126.013 72.43 125.759C78.5004 119.684 84.7113 123.077 87.5143 129.672C87.5948 129.861 87.847 130.659 87.852 130.11" stroke="black" stroke-width="6.59904" stroke-linecap="square" stroke-linejoin="bevel"/>
<path d="M30.9304 25.2583C30.9352 24.7419 40.3875 25.4246 41.5486 25.496C53.2153 26.2139 64.7715 25.7104 76.4388 25.8181C128.684 26.3003 139.629 15.412 134.442 75.6864C133.905 81.9314 136.163 101.384 131.059 106.303C128.199 109.059 24.1422 110.317 20.678 104.184C16.6241 97.0059 16.5191 49.3068 18.2524 38.5005C19.1043 33.1877 17.9711 27.1548 24.7259 25.69C27.0121 25.1941 34.0476 24.9452 31.7193 25.1608" stroke="black" stroke-width="6.59904" stroke-linecap="square" stroke-linejoin="bevel"/>
<path d="M23.0574 15.0859C23.0634 14.4458 34.2107 15.2868 35.5802 15.3747C49.3394 16.2582 62.9688 15.6275 76.729 15.7545C138.345 16.3233 151.26 2.8198 145.109 77.5406C144.471 85.2824 147.124 109.394 141.102 115.495C137.728 118.913 15.0044 120.531 10.9223 112.93C6.14489 104.034 6.04756 44.9051 8.09778 31.5084C9.10582 24.9221 7.7725 17.4441 15.7399 15.6245C18.4364 15.0086 26.7339 14.6961 23.9881 14.9647" stroke="black" stroke-width="6.59904" stroke-linecap="square" stroke-linejoin="bevel"/>
</g>
<defs>
<clipPath id="clip0_60_101">
<rect width="142" height="150.693" fill="white" transform="translate(152.337 1.68521) rotate(90.5289)"/>
</clipPath>
</defs>
</svg>
