<svg width="532" height="7023" viewBox="0 0 532 7023" fill="none" xmlns="http://www.w3.org/2000/svg">
    <path d="M86.5173 16.0606C132.876 16.0606 179.236 15.9243 225.594 16.0606C275.462 16.2071 325.269 17.5045 375.115 18.9058C392.95 19.4072 411.654 18.1257 429.469 19.7187C439.629 20.6272 409.867 25.7181 399.874 27.848C348.071 38.8897 294.929 42.54 242.422 47.968C168.851 55.5737 95.8389 62.8324 21.9117 63.6169C1.4334 63.8343 40.6361 71.8368 41.835 71.9495C94.8227 76.9283 148.916 74.5516 201.995 74.5915C284.908 74.6538 367.836 74.101 450.746 74.998C451.821 75.0096 498.185 75.7148 503.94 76.0141C515.397 76.6101 511.616 77.6166 501.812 79.2658C438.508 89.9143 374.198 96.645 310.316 101.825C246.555 106.994 182.706 108.855 118.82 111.173C107.838 111.572 87.8909 112.272 76.0721 113.409C72.1786 113.783 61.0523 114.67 64.6597 116.254C72.9769 119.906 82.5538 118.649 91.5465 119.303C117.65 121.201 152.961 123.04 177.816 124.383C259.374 128.79 341.133 132.02 422.312 141.861C442.341 144.29 501.816 149.615 481.889 152.836C472.645 154.33 463.193 153.492 453.841 153.649C390.909 154.708 444.564 153.598 365.444 154.665C283.729 155.767 201.596 156.453 120.561 168.891C118.868 169.151 57.2741 176.579 56.3422 186.369C56.1661 188.22 284.214 198.452 292.714 198.97C313.562 200.239 358.126 203.217 381.305 205.473C387.707 206.096 394.112 206.801 400.454 207.912C402.648 208.296 405.983 207.788 406.838 209.944C407.461 211.516 347.586 213.601 347.068 213.602C294.907 213.792 242.744 213.491 190.583 213.602C168.824 213.649 126.161 213.738 103.152 214.415C92.9933 214.715 81.0416 211.036 72.7838 217.261C69.2768 219.904 81.071 219.976 85.3568 220.512C100.028 222.349 114.766 223.553 129.459 225.187C198.273 232.837 336.042 245.51 336.042 245.51C388.933 250.141 442.518 253.3 495.042 261.769C503.969 263.208 492.075 262.988 490.4 262.988" stroke="#F4E8FF" stroke-width="32" stroke-linecap="round"/>
    <path d="M87.2296 2263.06C134.056 2263.06 180.885 2262.92 227.711 2263.06C278.083 2263.21 328.393 2264.52 378.743 2265.94C396.758 2266.45 415.651 2265.15 433.645 2266.76C443.908 2267.68 413.846 2272.84 403.752 2274.99C351.425 2286.17 297.747 2289.86 244.709 2295.36C170.395 2303.05 96.6454 2310.4 21.9714 2311.2C1.28626 2311.42 40.885 2319.51 42.0959 2319.63C95.6189 2324.67 150.258 2322.26 203.874 2322.3C287.625 2322.37 371.39 2321.81 455.138 2322.71C456.223 2322.73 503.056 2323.44 508.868 2323.74C520.442 2324.35 516.623 2325.36 506.719 2327.03C442.776 2337.81 377.816 2344.62 313.289 2349.87C248.884 2355.1 184.39 2356.98 119.859 2359.33C108.765 2359.73 88.617 2360.44 76.6789 2361.59C72.7461 2361.97 61.5074 2362.87 65.1513 2364.47C73.5525 2368.17 83.226 2366.9 92.3096 2367.56C118.677 2369.48 154.345 2371.34 179.451 2372.7C261.833 2377.16 344.417 2380.43 426.416 2390.39C446.647 2392.85 506.723 2398.24 486.595 2401.5C477.257 2403.01 467.71 2402.16 458.264 2402.32C394.696 2403.39 448.893 2402.27 368.973 2403.35C286.434 2404.46 203.47 2405.16 121.617 2417.75C119.907 2418.01 57.691 2425.53 56.7497 2435.44C56.5719 2437.31 286.923 2447.67 295.509 2448.19C316.567 2449.48 361.582 2452.49 384.995 2454.77C391.462 2455.41 397.931 2456.12 404.338 2457.24C406.553 2457.63 409.922 2457.12 410.786 2459.3C411.415 2460.89 350.936 2463 350.412 2463C297.724 2463.19 245.034 2462.89 192.346 2463C170.368 2463.05 127.273 2463.14 104.033 2463.83C93.771 2464.13 81.6986 2460.41 73.3574 2466.71C69.815 2469.38 81.7283 2469.45 86.0573 2470C100.877 2471.86 115.763 2473.07 130.605 2474.73C200.114 2482.47 269.617 2489.19 339.275 2495.3C392.7 2499.98 446.827 2503.18 499.881 2511.75C508.898 2513.21 496.883 2512.99 495.191 2512.99" stroke="#EBF8F2" stroke-width="32" stroke-linecap="round"/>
    <path d="M86.5173 4513.06C132.876 4513.06 179.236 4512.92 225.594 4513.06C275.462 4513.21 325.269 4514.5 375.115 4515.91C392.95 4516.41 411.654 4515.13 429.469 4516.72C439.629 4517.63 409.867 4522.72 399.874 4524.85C348.071 4535.89 294.929 4539.54 242.422 4544.97C168.851 4552.57 95.8389 4559.83 21.9117 4560.62C1.4334 4560.83 40.6361 4568.84 41.835 4568.95C94.8227 4573.93 148.916 4571.55 201.995 4571.59C284.908 4571.65 367.836 4571.1 450.746 4572C451.821 4572.01 498.185 4572.71 503.94 4573.01C515.397 4573.61 511.616 4574.62 501.812 4576.27C438.508 4586.91 374.198 4593.65 310.316 4598.82C246.555 4603.99 182.706 4605.85 118.82 4608.17C107.838 4608.57 87.8909 4609.27 76.0721 4610.41C72.1786 4610.78 61.0523 4611.67 64.6597 4613.25C72.977 4616.91 82.5538 4615.65 91.5465 4616.3C117.65 4618.2 152.961 4620.04 177.816 4621.38C259.374 4625.79 341.132 4629.02 422.312 4638.86C442.341 4641.29 501.816 4646.61 481.889 4649.84C472.645 4651.33 463.193 4650.49 453.841 4650.65C390.909 4651.71 444.564 4650.6 365.444 4651.67C283.729 4652.77 201.596 4653.45 120.561 4665.89C118.868 4666.15 57.2741 4673.58 56.3422 4683.37C56.1661 4685.22 284.214 4695.45 292.714 4695.97C313.562 4697.24 358.126 4700.22 381.305 4702.47C387.707 4703.1 394.112 4703.8 400.455 4704.91C402.648 4705.3 405.983 4704.79 406.838 4706.94C407.461 4708.52 347.586 4710.6 347.068 4710.6C294.907 4710.79 242.744 4710.49 190.583 4710.6C168.824 4710.65 126.161 4710.74 103.152 4711.42C92.9933 4711.71 81.0416 4708.04 72.7838 4714.26C69.2768 4716.9 81.071 4716.98 85.3568 4717.51C100.028 4719.35 114.766 4720.55 129.459 4722.19C198.273 4729.84 267.081 4736.47 336.042 4742.51C388.933 4747.14 442.518 4750.3 495.042 4758.77C503.969 4760.21 492.075 4759.99 490.4 4759.99" stroke="#FFEBF2" stroke-width="32" stroke-linecap="round"/>
    <path d="M86.5173 6760.06C132.876 6760.06 179.236 6759.92 225.594 6760.06C275.462 6760.21 325.269 6761.5 375.115 6762.91C392.95 6763.41 411.654 6762.13 429.469 6763.72C439.629 6764.63 409.867 6769.72 399.874 6771.85C348.071 6782.89 294.929 6786.54 242.422 6791.97C168.851 6799.57 95.8389 6806.83 21.9117 6807.62C1.4334 6807.83 40.6361 6815.84 41.835 6815.95C94.8227 6820.93 148.916 6818.55 201.995 6818.59C284.908 6818.65 367.836 6818.1 450.746 6819C451.821 6819.01 498.185 6819.71 503.94 6820.01C515.397 6820.61 511.616 6821.62 501.812 6823.27C438.508 6833.91 374.198 6840.65 310.316 6845.82C246.555 6850.99 182.706 6852.85 118.82 6855.17C107.838 6855.57 87.8909 6856.27 76.0721 6857.41C72.1786 6857.78 61.0523 6858.67 64.6597 6860.25C72.977 6863.91 82.5538 6862.65 91.5465 6863.3C117.65 6865.2 152.961 6867.04 177.816 6868.38C259.374 6872.79 341.132 6876.02 422.312 6885.86C442.341 6888.29 501.816 6893.61 481.889 6896.84C472.645 6898.33 463.193 6897.49 453.841 6897.65C390.909 6898.71 444.564 6897.6 365.444 6898.67C283.729 6899.77 201.596 6900.45 120.561 6912.89C118.868 6913.15 57.2741 6920.58 56.3422 6930.37C56.1661 6932.22 284.214 6942.45 292.714 6942.97C313.562 6944.24 358.126 6947.22 381.305 6949.47C387.707 6950.1 394.112 6950.8 400.455 6951.91C402.648 6952.3 405.983 6951.79 406.838 6953.94C407.461 6955.52 347.586 6957.6 347.068 6957.6C294.907 6957.79 242.744 6957.49 190.583 6957.6C168.824 6957.65 126.161 6957.74 103.152 6958.42C92.9933 6958.71 81.0416 6955.04 72.7838 6961.26C69.2768 6963.9 81.071 6963.98 85.3568 6964.51C100.028 6966.35 114.766 6967.55 129.459 6969.19C198.273 6976.84 267.081 6983.47 336.042 6989.51C388.933 6994.14 442.518 6997.3 495.042 7005.77C503.969 7007.21 492.075 7006.99 490.4 7006.99" stroke="#E1EDD7" stroke-width="32" stroke-linecap="round"/>
</svg>
